<svg xmlns="http://www.w3.org/2000/svg" xmlns:xlink="http://www.w3.org/1999/xlink" width="1200" zoomAndPan="magnify" viewBox="0 0 900 899.99999" height="1200" preserveAspectRatio="xMidYMid meet" version="1.0"><defs><g/><clipPath id="ef0f1eb528"><path d="M 210.421875 183 L 689.671875 183 L 689.671875 390 L 210.421875 390 Z M 210.421875 183 " clip-rule="nonzero"/></clipPath><clipPath id="3cf90c4bc5"><path d="M 210.421875 651 L 689.671875 651 L 689.671875 719 L 210.421875 719 Z M 210.421875 651 " clip-rule="nonzero"/></clipPath></defs><rect x="-90" width="1080" fill="#ffffff" y="-89.999999" height="1079.999988" fill-opacity="1"/><rect x="-90" width="1080" fill="#ffffff" y="-89.999999" height="1079.999988" fill-opacity="1"/><rect x="-90" width="1080" fill="#ffffff" y="-89.999999" height="1079.999988" fill-opacity="1"/><g clip-path="url(#ef0f1eb528)"><path fill="#fc6ba6" d="M 216.359375 389.214844 C 216.761719 389.214844 217.160156 389.175781 217.554688 389.097656 C 217.949219 389.019531 218.332031 388.902344 218.703125 388.75 C 219.074219 388.59375 219.425781 388.40625 219.761719 388.183594 C 220.09375 387.960938 220.402344 387.707031 220.6875 387.421875 C 220.972656 387.136719 221.226562 386.828125 221.449219 386.496094 C 221.671875 386.160156 221.863281 385.808594 222.015625 385.4375 C 222.167969 385.066406 222.285156 384.683594 222.363281 384.289062 C 222.441406 383.894531 222.480469 383.496094 222.480469 383.09375 L 222.480469 334.679688 L 677.25 334.679688 L 677.25 383.15625 C 677.25 383.558594 677.289062 383.957031 677.367188 384.351562 C 677.445312 384.742188 677.558594 385.125 677.714844 385.496094 C 677.867188 385.871094 678.054688 386.222656 678.28125 386.554688 C 678.503906 386.890625 678.757812 387.199219 679.042969 387.484375 C 679.324219 387.769531 679.632812 388.019531 679.96875 388.246094 C 680.300781 388.46875 680.65625 388.65625 681.027344 388.808594 C 681.398438 388.964844 681.78125 389.082031 682.175781 389.160156 C 682.570312 389.238281 682.96875 389.277344 683.367188 389.277344 C 683.769531 389.277344 684.167969 389.238281 684.5625 389.160156 C 684.957031 389.082031 685.339844 388.964844 685.710938 388.808594 C 686.082031 388.65625 686.433594 388.46875 686.769531 388.246094 C 687.105469 388.019531 687.414062 387.769531 687.695312 387.484375 C 687.980469 387.199219 688.234375 386.890625 688.457031 386.554688 C 688.679688 386.222656 688.871094 385.871094 689.023438 385.496094 C 689.175781 385.125 689.292969 384.742188 689.371094 384.351562 C 689.449219 383.957031 689.488281 383.558594 689.488281 383.15625 L 689.488281 328.558594 C 689.488281 328.15625 689.449219 327.757812 689.371094 327.363281 C 689.292969 326.972656 689.175781 326.589844 689.023438 326.21875 C 688.871094 325.84375 688.679688 325.492188 688.457031 325.160156 C 688.234375 324.824219 687.980469 324.515625 687.695312 324.230469 C 687.414062 323.945312 687.105469 323.691406 686.769531 323.46875 C 686.433594 323.246094 686.082031 323.058594 685.710938 322.90625 C 685.339844 322.75 684.957031 322.632812 684.5625 322.554688 C 684.167969 322.476562 683.769531 322.4375 683.367188 322.4375 L 586.050781 322.4375 C 588.378906 319.925781 590.582031 317.304688 592.664062 314.582031 C 594.742188 311.859375 596.691406 309.042969 598.503906 306.136719 C 600.316406 303.226562 601.988281 300.238281 603.519531 297.175781 C 605.050781 294.109375 606.433594 290.976562 607.667969 287.777344 C 608.902344 284.582031 609.980469 281.332031 610.90625 278.035156 C 611.832031 274.734375 612.601562 271.398438 613.210938 268.027344 C 613.820312 264.652344 614.269531 261.261719 614.558594 257.84375 C 614.847656 254.429688 614.976562 251.007812 614.941406 247.582031 C 614.207031 212.511719 593.761719 189.496094 558.933594 184.539062 C 556.683594 184.175781 554.414062 183.929688 552.136719 183.804688 C 549.859375 183.675781 547.578125 183.671875 545.296875 183.785156 C 543.019531 183.898438 540.75 184.128906 538.496094 184.480469 C 536.242188 184.832031 534.007812 185.300781 531.804688 185.890625 C 529.597656 186.476562 527.429688 187.175781 525.296875 187.988281 C 523.164062 188.804688 521.078125 189.726562 519.042969 190.761719 C 517.007812 191.796875 515.035156 192.933594 513.117188 194.175781 C 511.203125 195.414062 509.359375 196.753906 507.582031 198.1875 C 481.875 218.265625 467.554688 255.660156 459.902344 285.164062 C 459.300781 282.484375 458.609375 279.824219 457.824219 277.191406 C 457.042969 274.558594 456.171875 271.953125 455.210938 269.378906 C 454.25 266.804688 453.203125 264.265625 452.066406 261.761719 C 450.933594 259.257812 449.714844 256.796875 448.414062 254.378906 C 447.113281 251.957031 445.726562 249.585938 444.265625 247.257812 C 442.800781 244.933594 441.257812 242.660156 439.640625 240.441406 C 438.019531 238.21875 436.328125 236.058594 434.5625 233.953125 C 432.796875 231.847656 430.960938 229.804688 429.054688 227.824219 C 427.148438 225.847656 425.175781 223.933594 423.140625 222.089844 C 421.105469 220.242188 419.007812 218.46875 416.851562 216.769531 C 414.691406 215.066406 412.480469 213.4375 410.210938 211.886719 C 407.941406 210.335938 405.625 208.863281 403.253906 207.472656 C 400.886719 206.078125 398.472656 204.769531 396.015625 203.539062 C 393.558594 202.3125 391.058594 201.167969 388.523438 200.113281 C 385.988281 199.054688 383.417969 198.082031 380.816406 197.199219 C 378.214844 196.320312 375.585938 195.527344 372.925781 194.824219 C 336.203125 185.582031 302.664062 197.453125 289.746094 224.261719 C 267.652344 269.921875 296.417969 305.238281 315.699219 322.4375 L 216.359375 322.4375 C 215.957031 322.4375 215.5625 322.476562 215.167969 322.554688 C 214.773438 322.632812 214.390625 322.75 214.019531 322.90625 C 213.648438 323.058594 213.292969 323.246094 212.960938 323.46875 C 212.625 323.695312 212.316406 323.945312 212.03125 324.230469 C 211.75 324.515625 211.496094 324.824219 211.269531 325.160156 C 211.046875 325.492188 210.859375 325.84375 210.707031 326.21875 C 210.550781 326.589844 210.4375 326.972656 210.355469 327.363281 C 210.277344 327.757812 210.238281 328.15625 210.238281 328.558594 L 210.238281 383.15625 C 210.242188 383.554688 210.285156 383.949219 210.367188 384.339844 C 210.449219 384.730469 210.566406 385.113281 210.722656 385.480469 C 210.878906 385.847656 211.070312 386.195312 211.292969 386.527344 C 211.515625 386.855469 211.769531 387.164062 212.054688 387.445312 C 212.335938 387.726562 212.644531 387.976562 212.980469 388.195312 C 213.3125 388.417969 213.664062 388.601562 214.03125 388.753906 C 214.402344 388.90625 214.78125 389.023438 215.175781 389.097656 C 215.566406 389.175781 215.960938 389.214844 216.359375 389.214844 Z M 515.109375 207.738281 C 518.019531 205.371094 521.144531 203.335938 524.484375 201.632812 C 527.828125 199.929688 531.3125 198.597656 534.9375 197.636719 C 538.5625 196.675781 542.246094 196.109375 545.992188 195.933594 C 549.738281 195.757812 553.460938 195.980469 557.160156 196.597656 C 595.964844 202.105469 602.332031 231.058594 602.699219 247.828125 C 603.371094 283.019531 581.460938 318.582031 563.34375 322.4375 L 464.984375 322.4375 C 468.042969 301.078125 480.285156 234.972656 515.109375 207.738281 Z M 300.886719 229.589844 C 311.230469 208.105469 339.082031 198.984375 370.113281 206.695312 C 411.609375 217.039062 452.191406 256.765625 452.007812 322.378906 L 335.714844 322.378906 C 326.105469 316.316406 276.097656 280.511719 300.765625 229.589844 Z M 300.886719 229.589844 " fill-opacity="1" fill-rule="nonzero"/></g><g clip-path="url(#3cf90c4bc5)"><path fill="#fc6ba6" d="M 216.359375 718.261719 L 683.367188 718.261719 C 683.769531 718.261719 684.167969 718.222656 684.5625 718.144531 C 684.957031 718.066406 685.339844 717.949219 685.710938 717.796875 C 686.082031 717.640625 686.433594 717.453125 686.769531 717.230469 C 687.105469 717.007812 687.414062 716.753906 687.695312 716.46875 C 687.980469 716.183594 688.234375 715.875 688.457031 715.542969 C 688.679688 715.207031 688.871094 714.855469 689.023438 714.484375 C 689.175781 714.113281 689.292969 713.730469 689.371094 713.335938 C 689.449219 712.941406 689.488281 712.542969 689.488281 712.140625 L 689.488281 657.546875 C 689.488281 657.144531 689.449219 656.746094 689.371094 656.351562 C 689.292969 655.957031 689.175781 655.574219 689.023438 655.203125 C 688.871094 654.832031 688.679688 654.480469 688.457031 654.144531 C 688.234375 653.8125 687.980469 653.5 687.695312 653.21875 C 687.414062 652.933594 687.105469 652.679688 686.769531 652.457031 C 686.433594 652.234375 686.082031 652.042969 685.710938 651.890625 C 685.339844 651.738281 684.957031 651.621094 684.5625 651.542969 C 684.167969 651.464844 683.769531 651.425781 683.367188 651.425781 C 682.96875 651.425781 682.570312 651.464844 682.175781 651.542969 C 681.78125 651.621094 681.398438 651.738281 681.027344 651.890625 C 680.65625 652.042969 680.300781 652.234375 679.96875 652.457031 C 679.632812 652.679688 679.324219 652.933594 679.042969 653.21875 C 678.757812 653.5 678.503906 653.8125 678.28125 654.144531 C 678.054688 654.480469 677.867188 654.832031 677.714844 655.203125 C 677.558594 655.574219 677.445312 655.957031 677.367188 656.351562 C 677.289062 656.746094 677.25 657.144531 677.25 657.546875 L 677.25 706.019531 L 222.480469 706.019531 L 222.480469 657.546875 C 222.480469 657.144531 222.441406 656.746094 222.363281 656.351562 C 222.285156 655.957031 222.167969 655.574219 222.015625 655.203125 C 221.863281 654.832031 221.671875 654.480469 221.449219 654.144531 C 221.226562 653.8125 220.972656 653.5 220.6875 653.21875 C 220.402344 652.933594 220.09375 652.679688 219.761719 652.457031 C 219.425781 652.234375 219.074219 652.042969 218.703125 651.890625 C 218.332031 651.738281 217.949219 651.621094 217.554688 651.542969 C 217.160156 651.464844 216.761719 651.425781 216.359375 651.425781 C 215.957031 651.425781 215.558594 651.464844 215.167969 651.542969 C 214.773438 651.621094 214.390625 651.738281 214.019531 651.890625 C 213.648438 652.042969 213.292969 652.234375 212.960938 652.457031 C 212.625 652.679688 212.316406 652.933594 212.03125 653.21875 C 211.75 653.5 211.496094 653.8125 211.269531 654.144531 C 211.046875 654.480469 210.859375 654.832031 210.707031 655.203125 C 210.550781 655.574219 210.4375 655.957031 210.355469 656.351562 C 210.277344 656.746094 210.238281 657.144531 210.238281 657.546875 L 210.238281 712.140625 C 210.238281 712.542969 210.277344 712.941406 210.355469 713.335938 C 210.4375 713.730469 210.550781 714.113281 210.707031 714.484375 C 210.859375 714.855469 211.046875 715.207031 211.269531 715.542969 C 211.496094 715.875 211.75 716.183594 212.03125 716.46875 C 212.316406 716.753906 212.625 717.007812 212.960938 717.230469 C 213.292969 717.453125 213.648438 717.644531 214.019531 717.796875 C 214.390625 717.949219 214.773438 718.066406 215.167969 718.144531 C 215.558594 718.222656 215.957031 718.261719 216.359375 718.261719 Z M 216.359375 718.261719 " fill-opacity="1" fill-rule="nonzero"/></g><g fill="#eb0968" fill-opacity="1"><g transform="translate(250.734428, 520.975787)"><g><path d="M 89.292969 -51.941406 C 89.292969 -63.132812 88.007812 -88.234375 86.269531 -96.550781 C 84 -106.835938 78.253906 -111.976562 68.957031 -111.976562 C 58.976562 -111.976562 53.078125 -104.945312 53.078125 -95.117188 C 53.078125 -87.78125 55.042969 -75.382812 57.234375 -60.109375 C 52.851562 -78.933594 44.535156 -108.574219 28.503906 -108.574219 C 18.523438 -108.574219 10.054688 -99.804688 7.484375 -89.824219 C 5.519531 -81.507812 4.535156 -65.324219 4.535156 -41.132812 C 4.535156 -19.429688 6.804688 -0.832031 23.515625 0.757812 C 42.039062 3.023438 42.492188 -27.597656 37.804688 -47.558594 C 46.652344 -22.378906 51.566406 -0.226562 68.957031 -0.226562 C 86.117188 -0.226562 89.292969 -26.160156 89.292969 -51.941406 Z M 89.292969 -51.941406 "/></g></g></g><g fill="#eb0968" fill-opacity="1"><g transform="translate(344.563585, 520.975787)"><g><path d="M 87.027344 -53.683594 C 80.449219 -71.300781 68.273438 -89.519531 49.824219 -90.882812 C 24.496094 -92.773438 7.5625 -55.800781 5.066406 -32.738281 C 2.496094 -9.679688 9.074219 -0.605469 21.699219 0 C 34.328125 0.605469 41.886719 -6.578125 41.886719 -18.976562 C 41.886719 -31.378906 52.171875 -29.261719 54.285156 -16.859375 C 56.402344 -4.386719 66.535156 4.308594 82.035156 -1.738281 C 97.535156 -7.710938 93.679688 -36.066406 87.027344 -53.683594 Z M 48.691406 -43.171875 C 36.292969 -43.171875 39.316406 -62.90625 48.691406 -60.863281 C 55.875 -59.277344 61.09375 -43.171875 48.691406 -43.171875 Z M 48.691406 -43.171875 "/></g></g></g><g fill="#eb0968" fill-opacity="1"><g transform="translate(441.946311, 520.975787)"><g><path d="M 101.542969 -89.824219 C 95.796875 -99.273438 72.128906 -99.953125 68.652344 -92.316406 C 65.097656 -84.683594 70.316406 -67.292969 65.929688 -66.007812 C 59.578125 -64.117188 51.566406 -86.949219 44.382812 -92.695312 C 37.125 -98.519531 17.617188 -97.460938 11.492188 -91.109375 C 5.820312 -85.285156 4.082031 -75.230469 4.6875 -53.832031 C 5.292969 -32.4375 -0.679688 1.210938 26.917969 1.359375 C 54.4375 1.4375 37.957031 -32.285156 45.820312 -33.871094 C 53.605469 -35.535156 58.746094 -5.519531 68.199219 -1.585938 C 77.648438 2.269531 94.132812 1.890625 100.332031 -10.054688 C 106.457031 -22.003906 107.289062 -80.371094 101.542969 -89.824219 Z M 101.542969 -89.824219 "/></g></g></g><g fill="#eb0968" fill-opacity="1"><g transform="translate(551.879912, 520.975787)"><g><path d="M 87.027344 -53.683594 C 80.449219 -71.300781 68.273438 -89.519531 49.824219 -90.882812 C 24.496094 -92.773438 7.5625 -55.800781 5.066406 -32.738281 C 2.496094 -9.679688 9.074219 -0.605469 21.699219 0 C 34.328125 0.605469 41.886719 -6.578125 41.886719 -18.976562 C 41.886719 -31.378906 52.171875 -29.261719 54.285156 -16.859375 C 56.402344 -4.386719 66.535156 4.308594 82.035156 -1.738281 C 97.535156 -7.710938 93.679688 -36.066406 87.027344 -53.683594 Z M 48.691406 -43.171875 C 36.292969 -43.171875 39.316406 -62.90625 48.691406 -60.863281 C 55.875 -59.277344 61.09375 -43.171875 48.691406 -43.171875 Z M 48.691406 -43.171875 "/></g></g></g><g fill="#eb0968" fill-opacity="1"><g transform="translate(158.732814, 601.173089)"><g><path d="M 5.4375 -0.15625 C 12.136719 0.394531 17.339844 0.710938 21.121094 0.710938 C 42.402344 0.710938 53.042969 -8.039062 53.042969 -25.457031 C 53.042969 -35.78125 48.707031 -43.109375 39.957031 -47.367188 C 33.496094 -50.519531 24.273438 -52.09375 12.375 -52.09375 C 5.988281 -52.09375 2.757812 -51.386719 2.757812 -49.96875 C 2.757812 -49.335938 2.996094 -48.941406 3.546875 -48.785156 C 4.414062 -48.785156 5.4375 -48.863281 6.542969 -48.941406 L 8.667969 -49.023438 C 10.167969 -23.878906 10.640625 -8.273438 10.167969 -2.363281 C 9.535156 -2.363281 8.828125 -2.441406 7.960938 -2.523438 L 5.910156 -2.601562 C 4.570312 -2.601562 3.941406 -2.285156 3.941406 -1.578125 C 3.941406 -0.867188 4.414062 -0.394531 5.4375 -0.15625 Z M 13.320312 -2.441406 C 13.320312 -8.195312 13.160156 -15.605469 12.769531 -24.746094 L 12.136719 -38.933594 C 12.136719 -40.429688 12.058594 -42.242188 11.902344 -44.292969 C 11.664062 -47.207031 11.585938 -48.863281 11.585938 -49.414062 L 13.792969 -49.414062 C 38.144531 -49.414062 50.28125 -41.457031 50.28125 -25.613281 C 50.28125 -9.695312 40.195312 -1.734375 19.941406 -1.734375 C 19.230469 -1.734375 18.207031 -1.8125 16.707031 -1.96875 C 15.210938 -2.050781 14.109375 -2.128906 13.320312 -2.128906 Z M 13.320312 -2.441406 "/></g></g></g><g fill="#eb0968" fill-opacity="1"><g transform="translate(229.814882, 601.173089)"><g><path d="M 2.285156 -13.160156 C 2.285156 -9.222656 3.625 -5.910156 6.304688 -3.152344 C 8.984375 -0.394531 12.292969 0.945312 16.234375 0.945312 C 18.285156 0.945312 20.570312 0.550781 23.011719 -0.316406 C 26.246094 -1.496094 27.820312 -2.917969 27.820312 -4.648438 C 27.820312 -5.515625 27.269531 -5.988281 26.246094 -5.988281 C 25.851562 -5.988281 24.351562 -5.28125 21.832031 -3.863281 C 19.386719 -2.441406 17.339844 -1.734375 15.761719 -1.734375 C 12.375 -1.734375 9.773438 -3.074219 7.800781 -5.832031 C 6.070312 -8.195312 5.203125 -11.113281 5.203125 -14.582031 C 10.167969 -14.582031 15.921875 -14.972656 22.621094 -15.683594 C 25.378906 -16.078125 26.71875 -16.945312 26.71875 -18.285156 C 26.71875 -20.886719 25.378906 -22.855469 22.621094 -24.351562 C 20.492188 -25.535156 17.96875 -26.164062 15.210938 -26.164062 C 9.535156 -26.164062 5.203125 -22.539062 2.285156 -15.367188 Z M 15.449219 -23.878906 C 17.261719 -23.878906 18.992188 -23.566406 20.570312 -22.855469 C 22.621094 -21.910156 23.644531 -20.648438 23.644531 -18.992188 L 23.644531 -18.757812 C 20.886719 -17.8125 16.707031 -17.339844 11.269531 -17.339844 L 5.753906 -17.023438 C 6.148438 -18.679688 7.488281 -20.253906 9.773438 -21.753906 C 11.980469 -23.171875 13.871094 -23.878906 15.449219 -23.878906 Z M 15.449219 -23.878906 "/></g></g></g><g fill="#eb0968" fill-opacity="1"><g transform="translate(276.784171, 601.173089)"><g><path d="M 2.050781 -11.507812 C 2.050781 -7.960938 3.46875 -5.042969 6.382812 -2.757812 C 9.0625 -0.550781 12.292969 0.550781 16.15625 0.550781 C 20.964844 0.550781 23.328125 -0.238281 23.328125 -1.734375 C 23.328125 -2.679688 22.539062 -3.152344 20.964844 -3.152344 C 20.570312 -3.152344 19.859375 -3.074219 18.835938 -2.835938 C 17.8125 -2.601562 17.101562 -2.523438 16.550781 -2.523438 C 13.476562 -2.523438 10.875 -3.230469 8.75 -4.730469 C 6.304688 -6.382812 5.121094 -8.667969 5.121094 -11.507812 C 5.121094 -14.660156 6.070312 -17.339844 8.039062 -19.625 C 10.167969 -22.066406 13.082031 -23.328125 16.789062 -23.328125 C 17.96875 -23.328125 18.992188 -23.011719 20.019531 -22.460938 C 21.121094 -21.753906 21.671875 -20.964844 21.671875 -19.941406 C 21.671875 -19.625 21.59375 -19.152344 21.4375 -18.519531 C 21.28125 -17.890625 21.199219 -17.417969 21.199219 -17.023438 C 21.199219 -16.472656 21.753906 -16.234375 22.777344 -16.234375 C 23.328125 -16.234375 23.878906 -16.789062 24.351562 -17.890625 C 24.746094 -18.757812 24.90625 -19.625 24.90625 -20.414062 C 24.90625 -22.066406 23.960938 -23.484375 21.988281 -24.511719 C 20.332031 -25.378906 18.601562 -25.773438 16.707031 -25.773438 C 12.058594 -25.773438 8.355469 -24.351562 5.675781 -21.4375 C 3.230469 -18.835938 2.050781 -15.527344 2.050781 -11.507812 Z M 2.050781 -11.507812 "/></g></g></g><g fill="#eb0968" fill-opacity="1"><g transform="translate(319.419435, 601.173089)"><g><path d="M 2.285156 -13.792969 C 2.285156 -9.773438 3.78125 -6.304688 6.855469 -3.46875 C 9.773438 -0.710938 13.160156 0.710938 16.945312 0.710938 C 20.726562 0.710938 24.039062 -0.394531 26.796875 -2.601562 C 29.871094 -5.042969 31.445312 -8.273438 31.445312 -12.292969 C 31.445312 -15.761719 30.183594 -18.914062 27.742188 -21.671875 C 25.21875 -24.511719 22.382812 -25.929688 19.230469 -25.929688 C 7.960938 -25.929688 2.285156 -21.910156 2.285156 -13.792969 Z M 5.597656 -14.109375 C 5.597656 -16.15625 6.226562 -18.128906 7.488281 -19.941406 C 8.90625 -21.910156 10.5625 -22.933594 12.453125 -22.933594 C 12.53125 -22.933594 12.6875 -22.855469 13.082031 -22.621094 C 13.398438 -22.382812 13.632812 -22.226562 13.871094 -22.226562 C 14.265625 -22.226562 14.582031 -22.304688 14.972656 -22.460938 C 15.367188 -22.539062 15.683594 -22.621094 15.839844 -22.621094 C 16.707031 -22.621094 17.417969 -22.226562 17.890625 -21.359375 C 18.363281 -20.492188 18.757812 -20.097656 18.992188 -20.097656 C 19.546875 -20.097656 19.941406 -20.492188 20.253906 -21.359375 C 20.570312 -22.226562 20.886719 -22.621094 21.121094 -22.621094 L 21.28125 -22.621094 C 25.929688 -20.175781 28.214844 -16.707031 28.214844 -12.292969 C 28.214844 -9.300781 27.191406 -6.777344 25.0625 -4.808594 C 23.09375 -2.996094 20.648438 -2.050781 17.890625 -2.050781 C 14.5 -2.050781 11.585938 -3.152344 9.300781 -5.28125 C 6.855469 -7.566406 5.597656 -10.5625 5.597656 -14.109375 Z M 5.597656 -14.109375 "/></g></g></g><g fill="#eb0968" fill-opacity="1"><g transform="translate(370.013518, 601.173089)"><g><path d="M 12.292969 -2.363281 C 11.980469 -4.886719 11.820312 -9.140625 11.820312 -15.054688 C 11.664062 -15.054688 12.609375 -16.550781 14.582031 -19.546875 C 16.550781 -22.460938 18.835938 -24.039062 21.359375 -24.117188 C 22.855469 -24.195312 23.960938 -23.644531 24.511719 -22.382812 C 25.0625 -21.121094 24.511719 -20.332031 22.777344 -20.019531 L 22.699219 -18.363281 C 22.699219 -17.890625 22.933594 -17.652344 23.328125 -17.652344 C 24.511719 -17.652344 25.613281 -18.128906 26.558594 -19.152344 C 27.425781 -20.175781 27.898438 -21.28125 27.898438 -22.460938 C 27.898438 -23.644531 27.113281 -24.589844 25.535156 -25.378906 C 24.195312 -26.007812 22.933594 -26.324219 21.671875 -26.324219 C 19.230469 -26.324219 17.101562 -25.300781 15.132812 -23.25 C 14.5 -22.621094 13.871094 -21.832031 13.242188 -20.886719 C 12.609375 -20.019531 12.214844 -19.464844 12.136719 -19.386719 C 12.136719 -20.019531 12.214844 -20.804688 12.375 -21.671875 C 12.53125 -22.539062 12.609375 -23.328125 12.609375 -23.878906 C 12.609375 -24.433594 12.214844 -24.90625 11.429688 -25.300781 C 10.71875 -25.691406 10.089844 -25.929688 9.535156 -25.929688 C 8.589844 -25.929688 7.566406 -25.929688 6.382812 -25.851562 C 5.28125 -25.773438 4.257812 -25.773438 3.230469 -25.773438 C 2.601562 -25.613281 2.285156 -25.21875 2.285156 -24.511719 C 2.285156 -23.40625 3.46875 -22.855469 5.910156 -22.855469 C 6.542969 -22.855469 7.09375 -22.933594 7.566406 -23.011719 C 8.039062 -23.09375 8.589844 -23.09375 9.222656 -23.09375 C 9.222656 -20.804688 9.300781 -17.417969 9.378906 -13.003906 C 9.457031 -8.667969 9.535156 -5.359375 9.535156 -3.152344 L 9.535156 -2.363281 L 4.730469 -1.96875 C 3.863281 -1.578125 3.46875 -1.101562 3.46875 -0.472656 C 3.46875 -0.238281 3.78125 0.078125 4.492188 0.550781 L 6.621094 0.550781 C 10.953125 0.550781 15.921875 0.394531 21.671875 0.078125 C 22.621094 -0.238281 23.09375 -0.550781 23.09375 -0.945312 C 23.09375 -1.261719 22.855469 -1.578125 22.304688 -1.890625 C 21.910156 -2.207031 21.515625 -2.363281 21.199219 -2.363281 Z M 12.292969 -2.363281 "/></g></g></g><g fill="#eb0968" fill-opacity="1"><g transform="translate(416.352395, 601.173089)"><g/></g></g><g fill="#eb0968" fill-opacity="1"><g transform="translate(453.314079, 601.173089)"><g><path d="M 50.914062 -3.863281 C 44.84375 -9.613281 41.769531 -12.292969 41.851562 -11.980469 C 42.402344 -12.53125 43.425781 -14.265625 44.765625 -17.023438 C 45.949219 -19.625 46.578125 -21.199219 46.65625 -21.59375 C 48.628906 -20.414062 50.125 -19.859375 51.226562 -19.859375 C 52.332031 -19.859375 52.882812 -20.253906 52.882812 -21.042969 L 52.410156 -22.144531 L 41.457031 -27.503906 L 40.746094 -27.503906 C 39.878906 -27.503906 39.40625 -27.113281 39.40625 -26.324219 C 39.40625 -25.535156 40.902344 -24.351562 43.898438 -22.855469 C 41.140625 -16.628906 39.644531 -13.476562 39.5625 -13.476562 C 37.042969 -15.761719 33.890625 -18.757812 30.027344 -22.621094 L 20.570312 -31.839844 C 20.570312 -31.445312 22.144531 -32.707031 25.378906 -35.703125 C 28.53125 -38.695312 30.105469 -41.613281 30.105469 -44.371094 C 30.105469 -46.578125 29.238281 -48.46875 27.425781 -50.046875 C 25.691406 -51.542969 23.800781 -52.332031 21.753906 -52.332031 C 19.152344 -52.332031 16.707031 -51.386719 14.421875 -49.414062 C 12.058594 -47.289062 10.875 -44.921875 10.875 -42.164062 C 10.875 -40.035156 12.609375 -36.882812 16.15625 -32.785156 C 7.171875 -26.402344 2.679688 -19.859375 2.679688 -13.160156 C 2.679688 -8.273438 4.730469 -4.414062 8.75 -1.496094 C 12.292969 1.101562 16.394531 2.363281 21.199219 2.363281 C 24.90625 2.363281 28.609375 1.261719 32.3125 -0.945312 C 36.015625 -3.230469 38.695312 -6.070312 40.511719 -9.457031 C 44.292969 -7.328125 47.050781 -4.886719 48.785156 -1.96875 C 46.5 0 45.316406 1.578125 45.316406 2.757812 C 45.316406 3.625 45.867188 4.097656 46.894531 4.097656 C 46.972656 4.097656 48.546875 2.679688 51.464844 -0.15625 C 54.460938 -2.996094 55.957031 -4.570312 55.957031 -4.808594 C 55.957031 -5.675781 55.40625 -6.070312 54.382812 -6.070312 C 53.671875 -6.070312 52.488281 -5.359375 50.914062 -3.941406 Z M 13.632812 -41.535156 C 13.632812 -43.582031 14.582031 -45.476562 16.394531 -47.128906 C 18.207031 -48.785156 20.019531 -49.574219 21.988281 -49.574219 C 23.171875 -49.574219 24.351562 -49.101562 25.535156 -48.15625 C 26.796875 -47.128906 27.425781 -46.027344 27.425781 -44.84375 C 27.425781 -42.953125 26.324219 -40.824219 24.117188 -38.382812 C 22.226562 -36.253906 20.414062 -34.835938 18.601562 -34.046875 C 15.289062 -38.066406 13.632812 -40.511719 13.632812 -41.535156 Z M 5.359375 -13.320312 C 5.359375 -17.179688 7.171875 -21.042969 10.796875 -24.90625 C 13.632812 -27.898438 16.15625 -29.710938 18.285156 -30.421875 C 25.929688 -23.011719 31.523438 -17.652344 35.070312 -14.34375 L 38.382812 -11.269531 C 34.046875 -4.019531 28.292969 -0.394531 20.964844 -0.394531 C 16.867188 -0.394531 13.320312 -1.417969 10.402344 -3.546875 C 7.015625 -5.988281 5.359375 -9.222656 5.359375 -13.320312 Z M 5.359375 -13.320312 "/></g></g></g><g fill="#eb0968" fill-opacity="1"><g transform="translate(525.656965, 601.173089)"><g/></g></g><g fill="#eb0968" fill-opacity="1"><g transform="translate(562.618649, 601.173089)"><g><path d="M 50.597656 -0.472656 C 51.542969 -0.472656 52.015625 -1.023438 52.015625 -2.207031 L 52.015625 -2.757812 C 51.070312 -7.566406 50.597656 -12.375 50.597656 -17.023438 L 50.675781 -19.230469 L 50.441406 -19.464844 C 49.335938 -20.648438 43.03125 -21.199219 31.445312 -21.199219 L 27.503906 -21.199219 C 26.875 -21.199219 26.558594 -20.726562 26.558594 -19.78125 C 26.558594 -19.074219 26.796875 -18.601562 27.269531 -18.363281 C 28.136719 -18.441406 31.050781 -18.441406 35.859375 -18.441406 C 42.796875 -18.441406 46.65625 -17.96875 47.523438 -17.023438 L 47.523438 -16 C 47.523438 -11.902344 45.476562 -8.355469 41.296875 -5.28125 C 37.4375 -2.523438 33.417969 -1.183594 29.082031 -1.183594 C 22.621094 -1.183594 17.101562 -3.625 12.53125 -8.589844 C 8.117188 -13.398438 5.910156 -19.152344 5.910156 -25.691406 C 5.910156 -32.628906 8.589844 -38.382812 13.871094 -42.875 C 18.992188 -47.207031 25.140625 -49.414062 32.3125 -49.414062 C 38.066406 -49.414062 42.164062 -47.917969 44.449219 -44.84375 C 44.53125 -44.765625 44.609375 -43.582031 44.6875 -41.21875 C 44.765625 -38.777344 44.765625 -37.59375 44.84375 -37.515625 L 45.789062 -37.515625 C 46.816406 -37.515625 47.367188 -37.832031 47.367188 -38.460938 C 47.367188 -39.484375 47.289062 -41.691406 47.207031 -45.160156 C 47.050781 -48.707031 46.972656 -50.914062 46.972656 -51.859375 C 46.421875 -52.253906 45.949219 -52.488281 45.394531 -52.488281 C 44.765625 -52.488281 44.292969 -51.464844 43.976562 -49.335938 C 40.589844 -50.992188 36.726562 -51.859375 32.550781 -51.859375 C 24.351562 -51.859375 17.417969 -49.496094 11.820312 -44.84375 C 5.910156 -39.878906 2.917969 -33.417969 2.917969 -25.457031 C 2.917969 -18.441406 5.4375 -12.136719 10.402344 -6.699219 C 15.527344 -1.101562 21.515625 1.65625 28.371094 1.65625 C 35.859375 1.65625 41.375 -0.628906 45.003906 -5.203125 C 46.972656 -7.722656 48.074219 -8.984375 48.234375 -8.984375 C 48.390625 -8.75 48.46875 -8.195312 48.46875 -7.328125 L 48.46875 -4.570312 C 48.46875 -2.363281 48.863281 -1.023438 49.652344 -0.472656 Z M 50.597656 -0.472656 "/></g></g></g><g fill="#eb0968" fill-opacity="1"><g transform="translate(634.567526, 601.173089)"><g><path d="M 21.832031 -0.238281 C 22.382812 -0.789062 22.699219 -1.183594 22.777344 -1.339844 C 22.460938 -2.363281 21.910156 -2.835938 21.121094 -2.835938 L 14.972656 -2.679688 C 14.109375 -5.28125 13.714844 -8.511719 13.714844 -12.453125 C 13.714844 -13.792969 13.792969 -15.605469 13.871094 -17.890625 C 13.949219 -20.253906 14.027344 -21.988281 14.027344 -23.09375 C 14.027344 -23.800781 13.632812 -24.433594 12.925781 -24.984375 C 12.214844 -25.535156 11.585938 -25.691406 11.191406 -25.457031 C 10.640625 -25.457031 8.984375 -25.378906 6.148438 -25.140625 C 3.308594 -24.90625 1.65625 -24.746094 1.261719 -24.746094 C 0.710938 -24.511719 0.472656 -24.195312 0.472656 -23.800781 C 0.472656 -22.699219 1.8125 -22.144531 4.570312 -22.144531 C 5.28125 -22.144531 6.304688 -22.226562 7.800781 -22.382812 C 9.222656 -22.539062 10.324219 -22.621094 11.191406 -22.621094 C 11.191406 -20.492188 11.269531 -17.417969 11.429688 -13.398438 C 11.585938 -9.378906 11.664062 -6.304688 11.664062 -4.335938 L 11.347656 -2.441406 C 5.753906 -2.441406 2.917969 -1.96875 2.917969 -1.023438 C 2.917969 -0.15625 3.390625 0.316406 4.414062 0.394531 L 7.410156 0.238281 C 12.925781 0.394531 16.867188 0.15625 19.230469 -0.472656 Z M 7.410156 -42.164062 C 7.410156 -39.957031 8.273438 -38.855469 10.007812 -38.855469 C 11.902344 -38.855469 12.847656 -39.800781 12.847656 -41.691406 C 12.847656 -42.164062 12.375 -42.875 11.507812 -43.742188 C 10.640625 -44.609375 9.929688 -45.003906 9.535156 -45.003906 C 8.117188 -45.003906 7.410156 -44.054688 7.410156 -42.164062 Z M 7.410156 -42.164062 "/></g></g></g><g fill="#eb0968" fill-opacity="1"><g transform="translate(674.366006, 601.173089)"><g><path d="M 3.703125 -25.613281 C 3.546875 -25.613281 3.390625 -25.21875 3.152344 -24.351562 C 3.152344 -23.09375 4.808594 -22.460938 8.195312 -22.460938 C 8.355469 -21.359375 8.433594 -20.097656 8.433594 -18.679688 C 8.433594 -17.496094 8.511719 -14.894531 8.589844 -10.953125 C 8.667969 -8.273438 8.589844 -5.753906 8.511719 -3.308594 L 8.273438 -2.207031 C 4.175781 -2.207031 2.128906 -1.734375 2.128906 -0.710938 C 2.128906 0.15625 2.996094 0.550781 4.808594 0.550781 L 11.191406 0.472656 C 13.714844 0.472656 15.921875 0.550781 17.734375 0.710938 C 17.890625 0.867188 18.285156 0.945312 18.914062 0.945312 C 20.019531 0.945312 20.570312 0.394531 20.570312 -0.710938 C 20.570312 -1.734375 19.230469 -2.207031 16.550781 -2.207031 C 15.527344 -2.207031 14.421875 -2.207031 13.082031 -2.128906 L 11.113281 -1.96875 C 11.269531 -3.390625 11.347656 -10.324219 11.347656 -22.855469 L 20.414062 -22.855469 C 21.910156 -22.855469 22.699219 -23.25 22.699219 -24.039062 C 22.699219 -24.589844 22.304688 -25.0625 21.515625 -25.457031 C 17.417969 -25.378906 14.265625 -25.300781 11.980469 -25.300781 C 11.113281 -25.300781 10.71875 -25.851562 10.71875 -26.953125 L 10.796875 -29.554688 C 10.875 -31.050781 10.875 -32.550781 10.875 -34.125 C 10.875 -48.628906 14.5 -55.878906 21.753906 -55.878906 C 24.511719 -55.878906 26.480469 -54.460938 27.585938 -51.542969 C 28.136719 -49.96875 28.53125 -47.445312 28.765625 -43.976562 C 28.925781 -43.582031 29.320312 -43.425781 29.949219 -43.425781 C 30.421875 -43.425781 30.894531 -43.742188 31.289062 -44.292969 C 31.683594 -44.84375 31.839844 -45.316406 31.839844 -45.789062 C 31.839844 -49.179688 30.894531 -52.09375 29.082031 -54.539062 C 27.03125 -57.21875 24.351562 -58.558594 20.964844 -58.558594 C 15.132812 -58.558594 11.269531 -54.144531 9.378906 -45.316406 C 8.433594 -41.0625 7.960938 -34.519531 7.960938 -25.613281 Z M 3.703125 -25.613281 "/></g></g></g><g fill="#eb0968" fill-opacity="1"><g transform="translate(714.558471, 601.173089)"><g><path d="M 11.113281 -23.011719 L 22.304688 -23.011719 C 23.171875 -23.011719 23.566406 -23.40625 23.566406 -24.117188 C 23.566406 -24.746094 23.328125 -25.140625 22.855469 -25.378906 L 17.339844 -25.300781 C 14.265625 -25.300781 12.136719 -25.378906 11.113281 -25.613281 L 11.347656 -28.6875 C 11.585938 -31.132812 11.820312 -34.675781 12.058594 -39.171875 C 12.058594 -39.957031 11.507812 -40.351562 10.402344 -40.351562 C 9.378906 -40.351562 8.90625 -40.035156 8.90625 -39.40625 C 8.75 -31.367188 8.667969 -27.664062 8.75 -28.214844 C 8.667969 -26.558594 8.195312 -25.773438 7.410156 -25.773438 C 2.996094 -25.773438 0.789062 -25.378906 0.789062 -24.667969 C 0.789062 -23.484375 1.890625 -22.933594 4.097656 -22.933594 L 7.722656 -22.777344 C 7.722656 -21.988281 7.644531 -20.648438 7.488281 -18.757812 C 7.328125 -16.789062 7.25 -15.054688 7.25 -13.554688 C 7.25 -3.546875 10.640625 1.417969 17.339844 1.417969 C 22.621094 1.417969 25.21875 -2.050781 25.21875 -9.0625 C 25.21875 -9.851562 24.589844 -10.246094 23.25 -10.246094 C 22.539062 -10.246094 22.066406 -9.773438 21.910156 -8.828125 L 21.753906 -5.597656 C 21.59375 -2.523438 20.097656 -0.945312 17.339844 -0.945312 C 12.6875 -0.945312 10.324219 -5.28125 10.324219 -13.871094 C 10.324219 -15.367188 10.480469 -18.285156 10.875 -22.699219 Z M 11.113281 -23.011719 "/></g></g></g></svg>